# xmcd CD database file
#
# Track frame offsets:
#	150
#	16062
#	41177
#	56402
#	73862
#	100970
#	118352
#	147592
#	163975
#	178337
#	195855
#	216555
#	231837
#	251670
#
# Disc length: 3772 seconds
#
# Revision: 3
# Processed by: cddbd v1.5.2PL0 Copyright (c) Steve Scherf et al.
# Submitted via: CDex 1.51
#
DISCID=dc0eba0e
DTITLE=The Isley Brothers - Groovy Isleys
DYEAR=1900
DGENRE=Funk
TTITLE0=Work To Do(Live)
TTITLE1=That Lady
TTITLE2=If You Were There
TTITLE3=Harvest For The World
TTITLE4=Coolin' Me Out(Part 1 and 2)
TTITLE5=So You Wanna Stay Down
TTITLE6=Spill The Wine
TTITLE7=Love The One You're With
TTITLE8=Work To Do
TTITLE9=What It Comes Down To
TTITLE10=Fun And Games
TTITLE11=Go For What You Know
TTITLE12=Baby Hold On
TTITLE13=Midnight Sky(Part 1 and 2)
EXTD=
EXTT0=
EXTT1=
EXTT2=
EXTT3=
EXTT4=
EXTT5=
EXTT6=
EXTT7=
EXTT8=
EXTT9=
EXTT10=
EXTT11=
EXTT12=
EXTT13=
PLAYORDER=
